<?xml version="1.0" standalone="no"?>
<!DOCTYPE svg PUBLIC "-//W3C//DTD SVG 20010904//EN"
 "http://www.w3.org/TR/2001/REC-SVG-20010904/DTD/svg10.dtd">
<svg version="1.0" xmlns="http://www.w3.org/2000/svg"
 width="126.000000pt" height="92.000000pt" viewBox="0 0 126.000000 92.000000"
 preserveAspectRatio="xMidYMid meet">

<g transform="translate(0.000000,92.000000) scale(0.100000,-0.100000)"
fill="#000000" stroke="none">
<path d="M174 732 c-13 -16 -15 -59 -14 -297 0 -186 4 -283 12 -292 15 -18
668 -19 686 -1 7 7 12 45 12 98 0 47 4 91 9 99 7 10 27 -1 91 -50 45 -35 93
-72 106 -82 l24 -19 0 252 0 253 -32 -26 c-154 -123 -180 -140 -189 -126 -5 8
-9 49 -9 92 0 128 32 117 -350 117 -306 0 -331 -1 -346 -18z m386 -172 l0 -70
70 0 70 0 0 -50 0 -50 -70 0 -70 0 0 -70 0 -70 -45 0 -45 0 0 70 0 70 -70 0
-70 0 0 50 0 50 70 0 70 0 0 70 0 70 45 0 45 0 0 -70z" fill="#606060"/>
</g>
</svg>
